<?xml version="1.0" encoding="utf-8"?>
<!-- Generator: Adobe Illustrator 16.0.0, SVG Export Plug-In . SVG Version: 6.00 Build 0)  -->
<!DOCTYPE svg PUBLIC "-//W3C//DTD SVG 1.1//EN" "http://www.w3.org/Graphics/SVG/1.1/DTD/svg11.dtd">
<svg version="1.1" id="Layer_1" xmlns="http://www.w3.org/2000/svg" xmlns:xlink="http://www.w3.org/1999/xlink" x="0px" y="0px"
	 width="286.975px" height="115.328px" viewBox="0 0 286.975 115.328" enable-background="new 0 0 286.975 115.328"
	 xml:space="preserve">
<g>
	<g>
		<polygon points="9.008,64.156 9.008,30.164 38.364,64.156 50.786,64.156 19.145,28.744 47.614,0 35.54,0 9.008,27.854 9.008,0 
			0.196,0 0.196,64.156 		"/>
		<path d="M65.047,40.256c0-10.146,1.982-16.281,13.387-16.664c1.234,0,2.66,0,3.889,0.477v-8.607c-1.043,0-1.99-0.102-3.131-0.102
			c-6.551,0-12.629,3.348-13.965,9.961h-0.18v-9.285h-9.031v48.121h9.031V40.256z"/>
		<path d="M269.7,40.256c0-10.146,1.982-16.281,13.387-16.664c1.234,0,2.66,0,3.889,0.477v-8.607c-1.043,0-1.99-0.102-3.131-0.102
			c-6.551,0-12.629,3.348-13.965,9.961h-0.18v-9.285h-9.031v48.121h9.031V40.256z"/>
		<path d="M124.946,40.875c0,1.16-0.082,6.85-1.809,11.385c-1.922,5.016-6.996,6.945-10.727,6.945
			c-8.711,0-10.633-6.174-10.633-14.572V16.035h-9.086v32.367c0,9.75,7.068,17.318,16.549,17.318c6.715,0,12.072-2.371,15.705-8.445
			h0.199v6.881h8.902V16.035h-9.102V40.875z"/>
		<path d="M155.333,39.203c0-7.689,2.902-17.992,13.605-17.992c9.938,0,13.605,8.555,13.605,17.992
			c0,9.43-3.668,17.988-13.605,17.988C158.235,57.191,155.333,46.879,155.333,39.203z M182.543,23.254
			c0,0.684-1.268-2.145-1.457-2.336c-2.988-4.467-8.191-6.412-12.914-6.412c-14.676,0-22.486,11.084-22.486,25.182
			c0,13.705,6.886,24.469,20.643,24.469c5.982,0,13.027-2.688,15.926-8.523h0.289c-0.289,10.982-0.289,21.877-13.324,21.877
			c-6.457,0-10.891-2.533-11.275-9.037h-9.662c0,10.76,10.301,15.861,19.864,15.861c15.841,0,23.558-7.408,23.558-25.307V24.711
			c0-2.914,0.285-5.775,0.576-8.676h-9.447L182.543,23.254z"/>
		<path d="M247.85,41.52v-4.451c0-13.139-6.67-21.586-20.74-21.867c-14.926,0-21.869,11.094-21.869,24.996
			c0,13.994,7.465,24.783,21.117,24.783c11.26,0,19.518-5.4,20.932-16.18h-9.383c-1.037,6.908-4.508,9.652-11.455,9.652
			c-9.107,0-12.486-8.609-11.826-16.934H247.85z M214.625,35.273c0-7.752,4.414-14.086,11.826-14.086
			c8.627,0,12.199,6.133,12.01,14.086H214.625z"/>
	</g>
</g>
<g>
	<path d="M0,114.705V84.717h7.518c5.773-0.125,12.252,1.329,12.252,8.473s-6.479,8.598-12.252,8.473H2.7v13.042H0z M2.7,99.171
		h6.562c4.029,0,7.601-1.288,7.601-5.981c0-4.694-3.572-5.981-7.601-5.981H2.7V99.171z"/>
	<path d="M27.039,114.705h-2.492V98.548c0.042-1.62-0.125-3.281-0.208-4.693h2.575l0.125,3.073h0.083
		c0.748-2.118,2.617-3.613,4.693-3.696c0.831-0.042,1.662,0,2.492,0.042v2.409c-0.498-0.042-1.038-0.166-1.537-0.166
		c-3.697,0-5.649,2.658-5.732,6.646V114.705z"/>
	<path d="M56.321,104.28c0,5.482-3.074,11.048-9.719,11.048s-9.719-5.566-9.719-11.048c0-5.483,3.074-11.048,9.719-11.048
		S56.321,98.797,56.321,104.28z M46.602,95.516c-5.026,0-7.02,4.901-7.02,8.764s1.994,8.764,7.02,8.764s7.02-4.901,7.02-8.764
		S51.627,95.516,46.602,95.516z"/>
	<path d="M75.842,111.631l-0.083-0.166c-1.703,2.492-4.237,3.863-7.144,3.863c-6.189,0-8.556-5.898-8.556-11.132
		c0-5.399,2.367-10.965,8.556-10.965c2.783,0,5.69,1.329,7.144,3.779l0.083-0.083V84.717h2.492v25.294
		c0,1.62,0.125,3.281,0.208,4.694h-2.575L75.842,111.631z M69.03,95.516c-4.735,0-6.271,4.403-6.271,8.39
		c0,3.863,1.122,9.138,5.898,9.138c5.441,0,7.103-4.527,7.103-9.262C75.759,99.544,73.89,95.516,69.03,95.516z"/>
	<path d="M98.52,93.854h2.492v16.157c0,1.62,0.125,3.281,0.208,4.694h-2.575l-0.125-3.074l-0.083-0.083
		c-1.453,2.575-3.821,3.78-6.521,3.78c-6.812,0-7.352-6.023-7.352-8.432V93.854h2.492v13.457c0,3.614,2.076,5.732,5.482,5.732
		c4.111,0,5.98-3.447,5.98-7.186V93.854z"/>
	<path d="M120.825,100.25c-0.208-3.198-2.243-4.735-5.69-4.735c-3.821,0-6.189,3.987-6.189,8.723c0,4.776,2.368,8.805,6.189,8.805
		c3.24,0,5.482-1.994,5.69-4.859h2.7c-0.665,4.776-3.406,7.144-8.142,7.144c-6.229,0-9.138-5.358-9.138-11.048
		c0-5.649,3.115-11.048,9.304-11.048c4.278,0,7.768,2.575,7.976,7.019H120.825z"/>
	<path d="M130.211,96.139h-4.153v-2.284h4.153V89.41l2.492-1.08v5.524h4.735v2.284h-4.735v13.956
		c-0.042,1.91,0.955,2.949,2.866,2.949c0.747,0,1.495-0.042,2.159-0.249v2.16c-0.789,0.208-1.702,0.374-2.533,0.374
		c-5.275,0-4.984-3.365-4.984-6.189V96.139z"/>
	<path d="M149.193,93.231c3.946,0,7.269,1.371,7.602,5.773h-2.7c-0.249-2.617-2.575-3.489-5.15-3.489
		c-2.326,0-4.693,0.914-4.693,3.364c0,3.074,4.028,2.783,9.678,4.777c2.159,0.748,3.53,2.617,3.53,4.859
		c0,4.693-4.361,6.812-8.764,6.812c-3.613,0-7.768-1.703-7.851-6.313h2.7c0.207,3.115,2.949,4.029,5.773,4.029
		c2.658,0,5.44-1.246,5.44-4.153c0-2.991-3.281-3.489-6.604-4.237c-3.281-0.789-6.604-1.744-6.604-5.607
		C141.55,94.727,145.538,93.231,149.193,93.231z"/>
</g>
</svg>
